{
  "source": "C:\\Users\\Peter\\Desktop\\stuff\\MIUN\\quantitative_research\\video_compression\\videos\\UVG\\Beauty_1920x1080_120fps_420_8bit_YUV.y4m",
  "output": "C:\\Users\\Peter\\Desktop\\stuff\\MIUN\\quantitative_research\\video_compression\\compressed_videos\\UVG\\h264\\1.5\\Beauty_1920x1080_120fps_420_8bit_YUV_h264.mp4",
  "codec": "h264",
  "ok": "[yuv4mpegpipe @ 000001cf429d5e40] Stream #0: not enough frames to estimate rate; consider increasing probesize\nInput #0, yuv4mpegpipe, from 'C:\\Users\\Peter\\Desktop\\stuff\\MIUN\\quantitative_research\\video_compression\\videos\\UVG\\Beauty_1920x1080_120fps_420_8bit_YUV.y4m':\n  Duration: 00:00:05.00, start: 0.000000, bitrate: 2985989 kb/s\n  Stream #0:0: Video: rawvideo (I420 / 0x30323449), yuv420p(progressive), 1920x1080, 120 fps, 120 tbr, 120 tbn\n[out#0/mp4 @ 000001cf429da640] Codec AVOption b:a (set bitrate (in bits/s)) has not been used for any stream. The most likely reason is either wrong type (e.g. a video option with no video streams) or that it is a private option of some decoder which was not actually used for any stream.\nStream mapping:\n  Stream #0:0 -> #0:0 (rawvideo (native) -> h264 (libx264))\nPress [q] to stop, [?] for help\n[libx264 @ 000001cf429dcac0] using cpu capabilities: MMX2 SSE2Fast SSSE3 SSE4.2 AVX FMA3 BMI2 AVX2\n[libx264 @ 000001cf429dcac0] profile High, level 5.1, 4:2:0, 8-bit\n[libx264 @ 000001cf429dcac0] 264 - core 165 r3222 b35605a - H.264/MPEG-4 AVC codec - Copyleft 2003-2025 - http://www.videolan.org/x264.html - options: cabac=1 ref=5 deblock=1:0:0 analyse=0x3:0x113 me=hex subme=8 psy=1 psy_rd=1.00:0.00 mixed_ref=1 me_range=16 chroma_me=1 trellis=2 8x8dct=1 cqm=0 deadzone=21,11 fast_pskip=1 chroma_qp_offset=-2 threads=18 lookahead_threads=3 sliced_threads=0 nr=0 decimate=1 interlaced=0 bluray_compat=0 constrained_intra=0 bframes=3 b_pyramid=2 b_adapt=1 b_bias=0 direct=3 weightb=1 open_gop=0 weightp=2 keyint=250 keyint_min=25 scenecut=40 intra_refresh=0 rc_lookahead=50 rc=cbr mbtree=1 bitrate=1500 ratetol=1.0 qcomp=0.60 qpmin=0 qpmax=69 qpstep=4 vbv_maxrate=1500 vbv_bufsize=1500 nal_hrd=none filler=0 ip_ratio=1.40 aq=1:1.00\nOutput #0, mp4, to 'C:\\Users\\Peter\\Desktop\\stuff\\MIUN\\quantitative_research\\video_compression\\compressed_videos\\UVG\\h264\\1.5\\Beauty_1920x1080_120fps_420_8bit_YUV_h264.mp4':\n  Metadata:\n    encoder         : Lavf62.3.100\n  Stream #0:0: Video: h264 (avc1 / 0x31637661), yuv420p(tv, progressive), 1920x1080, q=2-31, 1500 kb/s, 120 fps, 15360 tbn\n    Metadata:\n      encoder         : Lavc62.11.100 libx264\n    Side data:\n      cpb: bitrate max/min/avg: 1500000/0/1500000 buffer size: 1500000 vbv_delay: N/A\nframe=    0 fps=0.0 q=0.0 size=       0KiB time=N/A bitrate=N/A speed=N/A elapsed=0:00:00.51    \nframe=    0 fps=0.0 q=0.0 size=       0KiB time=N/A bitrate=N/A speed=N/A elapsed=0:00:01.08    \nframe=    0 fps=0.0 q=0.0 size=       0KiB time=N/A bitrate=N/A speed=N/A elapsed=0:00:01.70    \nframe=    0 fps=0.0 q=0.0 size=       0KiB time=N/A bitrate=N/A speed=N/A elapsed=0:00:02.22    \nframe=   12 fps=4.3 q=49.0 size=       0KiB time=00:00:00.05 bitrate=   7.7kbits/s speed=0.0178x elapsed=0:00:02.80    \nframe=   28 fps=8.1 q=47.0 size=       0KiB time=00:00:00.18 bitrate=   2.1kbits/s speed=0.0528x elapsed=0:00:03.47    \nframe=   44 fps= 11 q=46.0 size=       0KiB time=00:00:00.31 bitrate=   1.2kbits/s speed=0.0785x elapsed=0:00:04.03    \nframe=   64 fps= 14 q=46.0 size=       0KiB time=00:00:00.48 bitrate=   0.8kbits/s speed=0.103x elapsed=0:00:04.70    \nframe=   66 fps= 12 q=46.0 size=       0KiB time=00:00:00.53 bitrate=   0.7kbits/s speed= 0.1x elapsed=0:00:05.33    \nframe=   69 fps= 12 q=46.0 size=       0KiB time=00:00:00.55 bitrate=   0.7kbits/s speed=0.0941x elapsed=0:00:05.93    \nframe=   79 fps= 12 q=47.0 size=       0KiB time=00:00:00.62 bitrate=   0.6kbits/s speed=0.0955x elapsed=0:00:06.54    \nframe=   88 fps= 12 q=47.0 size=       0KiB time=00:00:00.70 bitrate=   0.5kbits/s speed=0.0987x elapsed=0:00:07.17    \nframe=   96 fps= 12 q=47.0 size=       0KiB time=00:00:00.77 bitrate=   0.5kbits/s speed=0.099x elapsed=0:00:07.83    \nframe=  105 fps= 13 q=47.0 size=       0KiB time=00:00:00.85 bitrate=   0.5kbits/s speed=0.101x elapsed=0:00:08.39    \nframe=  114 fps= 13 q=47.0 size=       0KiB time=00:00:00.92 bitrate=   0.4kbits/s speed=0.104x elapsed=0:00:08.92    \nframe=  124 fps= 13 q=47.0 size=       0KiB time=00:00:01.00 bitrate=   0.4kbits/s speed=0.105x elapsed=0:00:09.52    \nframe=  133 fps= 13 q=47.0 size=       0KiB time=00:00:01.08 bitrate=   0.4kbits/s speed=0.106x elapsed=0:00:10.20    \nframe=  142 fps= 13 q=47.0 size=       0KiB time=00:00:01.15 bitrate=   0.3kbits/s speed=0.106x elapsed=0:00:10.85    \nframe=  149 fps= 13 q=47.0 size=       0KiB time=00:00:01.22 bitrate=   0.3kbits/s speed=0.107x elapsed=0:00:11.50    \nframe=  159 fps= 13 q=47.0 size=       0KiB time=00:00:01.30 bitrate=   0.3kbits/s speed=0.108x elapsed=0:00:12.04    \nframe=  170 fps= 13 q=47.0 size=       0KiB time=00:00:01.39 bitrate=   0.3kbits/s speed=0.11x elapsed=0:00:12.67    \nframe=  180 fps= 14 q=47.0 size=       0KiB time=00:00:01.45 bitrate=   0.3kbits/s speed=0.109x elapsed=0:00:13.32    \nframe=  189 fps= 13 q=47.0 size=       0KiB time=00:00:01.55 bitrate=   0.2kbits/s speed=0.11x elapsed=0:00:14.07    \nframe=  199 fps= 14 q=47.0 size=     256KiB time=00:00:01.62 bitrate=1290.8kbits/s speed=0.11x elapsed=0:00:14.72    \nframe=  208 fps= 14 q=47.0 size=     256KiB time=00:00:01.70 bitrate=1227.8kbits/s speed=0.111x elapsed=0:00:15.37    \nframe=  217 fps= 14 q=47.0 size=     256KiB time=00:00:01.78 bitrate=1176.2kbits/s speed=0.111x elapsed=0:00:16.02    \nframe=  227 fps= 14 q=48.0 size=     256KiB time=00:00:01.85 bitrate=1128.7kbits/s speed=0.112x elapsed=0:00:16.63    \nframe=  245 fps= 14 q=47.0 size=     256KiB time=00:00:02.02 bitrate=1035.8kbits/s speed=0.117x elapsed=0:00:17.27    \nframe=  269 fps= 15 q=46.0 size=     256KiB time=00:00:02.15 bitrate= 971.8kbits/s speed=0.121x elapsed=0:00:17.83    \nframe=  285 fps= 15 q=46.0 size=     256KiB time=00:00:02.30 bitrate= 908.7kbits/s speed=0.124x elapsed=0:00:18.55    \nframe=  301 fps= 16 q=46.0 size=     256KiB time=00:00:02.49 bitrate= 841.8kbits/s speed=0.129x elapsed=0:00:19.26    \nframe=  321 fps= 16 q=46.0 size=     256KiB time=00:00:02.62 bitrate= 799.1kbits/s speed=0.132x elapsed=0:00:19.85    \nframe=  341 fps= 17 q=46.0 size=     256KiB time=00:00:02.82 bitrate= 742.5kbits/s speed=0.137x elapsed=0:00:20.56    \nframe=  346 fps= 16 q=46.0 size=     256KiB time=00:00:02.86 bitrate= 731.7kbits/s speed=0.135x elapsed=0:00:21.25    \nframe=  347 fps= 16 q=46.0 size=     256KiB time=00:00:02.87 bitrate= 729.6kbits/s speed=0.132x elapsed=0:00:21.78    \nframe=  357 fps= 16 q=47.0 size=     256KiB time=00:00:02.95 bitrate= 709.0kbits/s speed=0.132x elapsed=0:00:22.34    \nframe=  377 fps= 16 q=46.0 size=     512KiB time=00:00:03.12 bitrate=1342.3kbits/s speed=0.136x elapsed=0:00:22.96    \nframe=  397 fps= 17 q=46.0 size=     512KiB time=00:00:03.29 bitrate=1274.3kbits/s speed=0.14x elapsed=0:00:23.57    \nframe=  409 fps= 17 q=46.0 size=     512KiB time=00:00:03.39 bitrate=1236.8kbits/s speed=0.14x elapsed=0:00:24.17    \nframe=  426 fps= 17 q=46.0 size=     512KiB time=00:00:03.52 bitrate=1190.0kbits/s speed=0.142x elapsed=0:00:24.74    \nframe=  445 fps= 17 q=46.0 size=     512KiB time=00:00:03.69 bitrate=1136.3kbits/s speed=0.145x elapsed=0:00:25.44    \nframe=  447 fps= 17 q=46.0 size=     512KiB time=00:00:03.70 bitrate=1131.2kbits/s speed=0.143x elapsed=0:00:25.97    \nframe=  461 fps= 17 q=46.0 size=     512KiB time=00:00:03.82 bitrate=1096.7kbits/s speed=0.144x elapsed=0:00:26.48    \nframe=  463 fps= 17 q=46.0 size=     512KiB time=00:00:03.84 bitrate=1091.9kbits/s speed=0.142x elapsed=0:00:27.00    \nframe=  464 fps= 17 q=46.0 size=     512KiB time=00:00:03.85 bitrate=1089.5kbits/s speed=0.14x elapsed=0:00:27.51    \nframe=  466 fps= 17 q=46.0 size=     512KiB time=00:00:03.86 bitrate=1084.8kbits/s speed=0.138x elapsed=0:00:28.02    \nframe=  472 fps= 17 q=47.0 size=     512KiB time=00:00:03.91 bitrate=1071.0kbits/s speed=0.137x elapsed=0:00:28.54    \nframe=  480 fps= 17 q=47.0 size=     512KiB time=00:00:03.98 bitrate=1053.1kbits/s speed=0.137x elapsed=0:00:29.06    \nframe=  487 fps= 16 q=47.0 size=     512KiB time=00:00:04.04 bitrate=1037.9kbits/s speed=0.137x elapsed=0:00:29.57    \nframe=  493 fps= 16 q=47.0 size=     512KiB time=00:00:04.09 bitrate=1025.2kbits/s speed=0.136x elapsed=0:00:30.08    \nframe=  500 fps= 16 q=47.0 size=     512KiB time=00:00:04.15 bitrate=1010.8kbits/s speed=0.136x elapsed=0:00:30.60    \nframe=  509 fps= 16 q=47.0 size=     512KiB time=00:00:04.22 bitrate= 992.8kbits/s speed=0.136x elapsed=0:00:31.11    \nframe=  516 fps= 16 q=47.0 size=     512KiB time=00:00:04.28 bitrate= 979.3kbits/s speed=0.135x elapsed=0:00:31.63    \nframe=  523 fps= 16 q=47.0 size=     512KiB time=00:00:04.34 bitrate= 966.1kbits/s speed=0.135x elapsed=0:00:32.15    \nframe=  530 fps= 16 q=47.0 size=     512KiB time=00:00:04.40 bitrate= 953.3kbits/s speed=0.135x elapsed=0:00:32.66    \nframe=  546 fps= 16 q=46.0 size=     768KiB time=00:00:04.53 bitrate=1387.9kbits/s speed=0.137x elapsed=0:00:33.17    \nframe=  582 fps= 17 q=46.0 size=     768KiB time=00:00:04.83 bitrate=1301.8kbits/s speed=0.143x elapsed=0:00:33.69    \n[mp4 @ 000001cf429db780] Starting second pass: moving the moov atom to the beginning of the file\n[out#0/mp4 @ 000001cf429da640] video:859KiB audio:0KiB subtitle:0KiB other streams:0KiB global headers:0KiB muxing overhead: 0.655273%\nframe=  600 fps= 18 q=-1.0 Lsize=     864KiB time=00:00:04.98 bitrate=1421.1kbits/s speed=0.146x elapsed=0:00:34.09    \n[libx264 @ 000001cf429dcac0] frame I:3     Avg QP:43.94  size:  7367\n[libx264 @ 000001cf429dcac0] frame P:367   Avg QP:44.68  size:  1767\n[libx264 @ 000001cf429dcac0] frame B:230   Avg QP:46.08  size:   905\n[libx264 @ 000001cf429dcac0] consecutive B-frames: 48.7%  0.7%  0.0% 50.7%\n[libx264 @ 000001cf429dcac0] mb I  I16..4: 37.3% 62.5%  0.3%\n[libx264 @ 000001cf429dcac0] mb P  I16..4:  1.3%  0.3%  0.0%  P16..4: 11.3%  0.2%  0.6%  0.0%  0.0%    skip:86.1%\n[libx264 @ 000001cf429dcac0] mb B  I16..4:  0.0%  0.0%  0.0%  B16..8: 11.7%  0.1%  0.0%  direct: 0.0%  skip:88.1%  L0:27.4% L1:72.5% BI: 0.1%\n[libx264 @ 000001cf429dcac0] 8x8 transform intra:33.9% inter:96.9%\n[libx264 @ 000001cf429dcac0] direct mvs  spatial:95.7% temporal:4.3%\n[libx264 @ 000001cf429dcac0] coded y,uvDC,uvAC intra: 2.5% 11.9% 0.0% inter: 0.1% 0.4% 0.0%\n[libx264 @ 000001cf429dcac0] i16 v,h,dc,p: 28% 31%  6% 35%\n[libx264 @ 000001cf429dcac0] i8 v,h,dc,ddl,ddr,vr,hd,vl,hu:  9%  3% 58%  4% 10%  4%  6%  3%  3%\n[libx264 @ 000001cf429dcac0] i4 v,h,dc,ddl,ddr,vr,hd,vl,hu: 26%  6% 22% 10% 17%  7%  3%  3%  4%\n[libx264 @ 000001cf429dcac0] i8c dc,h,v,p: 76% 20%  4%  1%\n[libx264 @ 000001cf429dcac0] Weighted P-Frames: Y:0.0% UV:0.0%\n[libx264 @ 000001cf429dcac0] ref P L0: 52.1%  6.4% 20.4%  7.0%  8.1%  6.0%\n[libx264 @ 000001cf429dcac0] ref B L0: 79.3% 13.5%  5.4%  1.8%\n[libx264 @ 000001cf429dcac0] ref B L1: 95.5%  4.5%\n[libx264 @ 000001cf429dcac0] kb/s:1405.95\n",
  "seconds": 35.308059215545654,
  "probe_out": {}
}